<svg width="24" height="24" viewBox="0 0 24 24" fill="none" xmlns="http://www.w3.org/2000/svg">
<circle cx="12" cy="12" r="12" fill="white"/>
<path d="M10.7948 8.14607C11.0836 8.15485 11.3632 8.20527 11.6341 8.29739H11.6611C11.6794 8.3061 11.6932 8.31572 11.7023 8.32443C11.8036 8.35697 11.8994 8.39364 11.9911 8.44406L12.1653 8.52197C12.234 8.55864 12.3165 8.62693 12.3623 8.65489C12.4082 8.68193 12.4586 8.70989 12.4998 8.74152C13.0091 8.35239 13.6273 8.14156 14.2644 8.14607C14.5536 8.14607 14.8424 8.18693 15.1169 8.27906C16.8086 8.82906 17.4182 10.6853 16.909 12.3078C16.6203 13.1369 16.1482 13.8936 15.5299 14.5119C14.6448 15.369 13.6736 16.1298 12.6282 16.7853L12.5136 16.8545L12.3944 16.7807C11.3453 16.1298 10.3686 15.369 9.4753 14.5073C8.86114 13.8891 8.38859 13.1369 8.09526 12.3078C7.57734 10.6853 8.18693 8.82906 9.89697 8.26943C10.0299 8.2236 10.1669 8.19152 10.3044 8.17364H10.3594C10.4882 8.15485 10.6161 8.14607 10.7444 8.14607H10.7948ZM14.8786 9.59447C14.6907 9.52985 14.4844 9.63114 14.4157 9.82364C14.3515 10.0161 14.4523 10.227 14.6448 10.2953C14.9386 10.4053 15.1353 10.6945 15.1353 11.0148V11.0291C15.1266 11.134 15.1582 11.2353 15.2223 11.3132C15.2865 11.3911 15.3828 11.4365 15.4836 11.4461C15.6715 11.4411 15.8319 11.2903 15.8457 11.0973V11.0428C15.8594 10.4007 15.4703 9.81906 14.8786 9.59447Z" fill="#EF5DA8"/>
</svg>
